<?xml version="1.0" encoding="UTF-8"?>
<svg id="_レイヤー_2" data-name="レイヤー 2" xmlns="http://www.w3.org/2000/svg" viewBox="0 0 721.14 721.14">
  <defs>
    <style>
      .cls-1 {
        fill: #f5c922;
      }
    </style>
  </defs>
  <g id="_レイヤー_1-2" data-name="レイヤー 1">
    <path class="cls-1" d="m692.8,220.22c-18.16-42.94-44.16-81.5-77.27-114.61-33.11-33.11-71.67-59.11-114.61-77.27C456.46,9.54,409.24,0,360.57,0s-95.89,9.54-140.35,28.34c-42.94,18.16-81.5,44.16-114.61,77.27-33.11,33.11-59.11,71.67-77.27,114.61C9.54,264.68,0,311.9,0,360.57s9.54,95.89,28.34,140.35c18.16,42.94,44.16,81.5,77.27,114.61,33.11,33.11,71.67,59.11,114.61,77.27,44.46,18.81,91.68,28.34,140.35,28.34s95.89-9.54,140.35-28.34c42.94-18.16,81.5-44.16,114.61-77.27,33.11-33.11,59.11-71.67,77.27-114.61,18.81-44.46,28.34-91.68,28.34-140.35s-9.54-95.89-28.34-140.36Zm-332.23,472.93c-183.38,0-332.57-149.19-332.57-332.57S177.19,28,360.57,28s332.57,149.19,332.57,332.57-149.19,332.57-332.57,332.57ZM212.98,217.99c5.61-3.78,22.95-12.78,35.66-9.12,7.65,2.2,15.64-2.21,17.84-9.86,2.2-7.65-2.21-15.64-9.86-17.84-27.95-8.06-56.7,10.81-59.88,12.99-6.56,4.48-8.23,13.41-3.77,19.98,2.78,4.1,7.32,6.31,11.94,6.31,2.78,0,5.59-.8,8.06-2.47Zm264.35,242.55h-233.53c-7.96,0-14.41,6.45-14.41,14.41s6.45,14.41,14.41,14.41h233.53c7.96,0,14.41-6.45,14.41-14.41s-6.45-14.41-14.41-14.41Zm-194.6-163.56c0-21.5-17.43-38.92-38.92-38.92s-38.92,17.43-38.92,38.92,17.43,38.92,38.92,38.92,38.92-17.43,38.92-38.92Zm194.61-38.92c-21.5,0-38.92,17.43-38.92,38.92s17.43,38.92,38.92,38.92,38.92-17.43,38.92-38.92-17.43-38.92-38.92-38.92Zm47.06-63.89c-3.19-2.18-31.93-21.05-59.88-12.99-7.65,2.2-12.06,10.19-9.86,17.84,2.21,7.65,10.2,12.06,17.84,9.86,12.71-3.66,30.05,5.33,35.66,9.11,2.48,1.68,5.3,2.49,8.09,2.49,4.6,0,9.12-2.2,11.91-6.28,4.49-6.57,2.81-15.54-3.76-20.04Z"/>
  </g>
</svg>