<?xml version="1.0" encoding="UTF-8"?>
<svg id="_レイヤー_2" data-name="レイヤー 2" xmlns="http://www.w3.org/2000/svg" viewBox="0 0 721.14 721.14">
  <defs>
    <style>
      .cls-1 {
        fill: #e68c5a;
      }
    </style>
  </defs>
  <g id="_レイヤー_1-2" data-name="レイヤー 1">
    <path class="cls-1" d="m692.8,220.22c-18.16-42.94-44.16-81.5-77.27-114.61-33.11-33.11-71.67-59.11-114.61-77.27C456.46,9.54,409.24,0,360.57,0s-95.89,9.54-140.35,28.34c-42.94,18.16-81.5,44.16-114.61,77.27-33.11,33.11-59.11,71.67-77.27,114.61C9.54,264.68,0,311.9,0,360.57s9.54,95.89,28.34,140.35c18.16,42.94,44.16,81.5,77.27,114.61,33.11,33.11,71.67,59.11,114.61,77.27,44.46,18.81,91.68,28.34,140.35,28.34s95.89-9.54,140.36-28.34c42.94-18.16,81.5-44.16,114.61-77.27,33.11-33.11,59.11-71.67,77.27-114.61,18.81-44.46,28.34-91.68,28.34-140.35s-9.53-95.89-28.34-140.35Zm-332.23,472.93c-183.38,0-332.57-149.19-332.57-332.57S177.19,28,360.57,28s332.57,149.19,332.57,332.57-149.19,332.57-332.57,332.57ZM140.9,148.47c-1.48-3.87-5.2-6.43-9.34-6.43h0c-4.15,0-7.86,2.57-9.34,6.44l-29.78,78.27c-1.16,2.4-2.1,4.92-2.8,7.49-1.01,3.72-1.52,7.55-1.52,11.39,0,23.95,19.49,43.44,43.44,43.44s43.44-19.49,43.44-43.44c0-5.55-1.04-10.98-3.1-16.13l-31-81.04Zm-9.34,120.6c-12.93,0-23.44-10.52-23.44-23.44,0-2.07.28-4.14.82-6.16.4-1.47.94-2.91,1.62-4.27.15-.29.28-.6.4-.9l20.62-54.2,21.66,56.63c.02.05.04.11.06.16,1.12,2.79,1.69,5.73,1.69,8.74,0,12.93-10.52,23.44-23.44,23.44Zm340.01,66.83c21.5,0,38.92-17.43,38.92-38.92s-17.43-38.92-38.92-38.92-38.92,17.43-38.92,38.92,17.43,38.92,38.92,38.92Zm-272.45-38.92c0,21.5,17.43,38.92,38.92,38.92s38.92-17.43,38.92-38.92-17.43-38.92-38.92-38.92-38.92,17.43-38.92,38.92Zm155.68,109.14c-63.45,0-122.62,34.15-154.43,89.13-3.99,6.89-1.63,15.71,5.26,19.7,6.89,3.99,15.71,1.63,19.7-5.26,26.67-46.1,76.28-74.74,129.47-74.74s102.81,28.64,129.48,74.74c2.67,4.62,7.51,7.2,12.49,7.2,2.45,0,4.93-.63,7.2-1.94,6.89-3.99,9.25-12.8,5.26-19.7-31.8-54.98-90.98-89.13-154.43-89.13Zm163-193.86l-38.92-22.92c-6.86-4.04-15.7-1.75-19.74,5.11-4.04,6.86-1.75,15.7,5.11,19.74l38.92,22.92c2.3,1.35,4.81,2,7.3,2,4.94,0,9.75-2.54,12.44-7.1,4.04-6.86,1.75-15.7-5.11-19.74Zm-311.37,24.84l38.92-22.92c6.86-4.04,9.15-12.88,5.11-19.74-4.04-6.86-12.88-9.15-19.74-5.11l-38.92,22.92c-6.86,4.04-9.15,12.88-5.11,19.74,2.69,4.56,7.5,7.1,12.44,7.1,2.49,0,5-.64,7.3-2Z"/>
  </g>
</svg>