<?xml version="1.0" encoding="UTF-8"?>
<svg id="_レイヤー_2" data-name="レイヤー 2" xmlns="http://www.w3.org/2000/svg" viewBox="0 0 720.32 721.14">
  <defs>
    <style>
      .cls-1 {
        fill: #727171;
      }
    </style>
  </defs>
  <g id="_レイヤー_1-2" data-name="レイヤー 1">
    <path class="cls-1" d="m323.61,721.14c-.73,0-1.47-.04-2.22-.11-10.09-1.05-20.07-2.51-29.93-4.35-11.55-2.17-19.13-13.29-16.97-24.84,2.16-11.56,13.29-19.23,24.84-16.97,8.69,1.65,17.51,2.94,26.44,3.85,11.68,1.2,20.17,11.66,18.97,23.34-1.14,10.94-10.37,19.08-21.13,19.08Zm113.14-7.19c-9.65,0-18.39-6.6-20.68-16.39-2.69-11.44,4.4-22.89,15.82-25.57,8.74-2.05,17.31-4.46,25.74-7.2,11.17-3.64,23.18,2.48,26.8,13.65s-2.48,23.16-13.65,26.8c-9.54,3.1-19.27,5.81-29.14,8.14-1.65.39-3.28.57-4.89.57Zm-247.72-36.34c-3.61,0-7.27-.91-10.62-2.85-8.76-5.05-17.29-10.47-25.57-16.21-9.65-6.7-12.03-19.95-5.34-29.6,6.71-9.68,19.96-12.04,29.6-5.34,7.31,5.08,14.84,9.86,22.58,14.33,10.18,5.87,13.65,18.87,7.78,29.05-3.93,6.83-11.09,10.63-18.43,10.63Zm375.65-23.98c-6.41,0-12.75-2.89-16.95-8.39-7.1-9.35-5.29-22.69,4.06-29.81,7.1-5.4,13.96-11.08,20.56-17.04,8.71-7.86,22.14-7.17,30.04,1.55,7.86,8.72,7.17,22.18-1.55,30.04-7.49,6.74-15.26,13.19-23.3,19.31-3.85,2.92-8.38,4.33-12.86,4.33Zm-480.84-70.52c-6.55,0-13.01-3.02-17.18-8.72-5.95-8.14-11.56-16.54-16.81-25.18-6.11-10.04-2.92-23.12,7.12-29.21,10.01-6.12,23.11-2.94,29.21,7.12,4.64,7.61,9.58,15.02,14.81,22.19,6.94,9.48,4.86,22.79-4.62,29.71-3.78,2.77-8.17,4.1-12.53,4.1Zm573.23-36.55c-3.48,0-6.99-.84-10.25-2.64-10.29-5.66-14.04-18.59-8.36-28.88,4.28-7.77,8.24-15.74,11.88-23.91,4.76-10.74,17.36-15.6,28.08-10.77,10.73,4.78,15.55,17.35,10.77,28.08-4.11,9.25-8.63,18.3-13.48,27.12-3.88,7.03-11.14,11.01-18.63,11.01ZM26.02,454.05c-9.82,0-18.63-6.84-20.77-16.84-2.09-9.79-3.78-19.71-5.08-29.81-1.48-11.64,6.74-22.3,18.4-23.8,11.67-1.33,22.29,6.74,23.8,18.4,1.14,8.9,2.63,17.69,4.47,26.35,2.45,11.48-4.87,22.77-16.36,25.23-1.5.32-2.98.47-4.46.47Zm671.88-42.9c-.6,0-1.18-.03-1.77-.07-11.71-.97-20.42-11.24-19.45-22.94.73-8.82,1.11-17.72,1.11-26.71,0-11.74,9.53-21.96,21.27-21.96s21.27,8.82,21.27,20.56v1.4c0,10.18-.43,20.24-1.25,30.2-.91,11.12-10.22,19.52-21.17,19.52ZM25.8,312.64c-1.45,0-2.91-.14-4.37-.44-11.49-2.41-18.87-13.68-16.48-25.17,2.08-9.94,4.57-19.73,7.46-29.36,3.36-11.23,15.24-17.6,26.47-14.26,11.26,3.36,17.64,15.22,14.26,26.47-2.53,8.47-4.72,17.1-6.55,25.85-2.1,10.04-10.95,16.92-20.79,16.92Zm653.97-43.11c-8.76,0-16.96-5.45-20.05-14.18-2.98-8.42-6.29-16.7-9.93-24.78-4.82-10.72-.03-23.3,10.67-28.12,10.77-4.8,23.31-.03,28.12,10.67,4.11,9.17,7.86,18.52,11.23,28.05,3.92,11.08-1.88,23.23-12.96,27.14-2.34.83-4.73,1.22-7.09,1.22ZM83.03,183.36c-4.33,0-8.69-1.32-12.46-4.04-9.51-6.89-11.64-20.2-4.75-29.7,5.93-8.18,12.2-16.1,18.76-23.74,7.67-8.92,21.09-9.93,29.99-2.27,8.92,7.66,9.93,21.09,2.27,29.99-5.81,6.76-11.34,13.76-16.57,20.97-4.17,5.75-10.66,8.79-17.24,8.79Zm523-34.43c-5.63,0-11.26-2.23-15.44-6.63-6.13-6.48-12.53-12.71-19.17-18.66-8.75-7.84-9.48-21.28-1.65-30.03,7.85-8.75,21.29-9.5,30.03-1.65,7.5,6.73,14.73,13.76,21.67,21.07,8.07,8.53,7.71,21.99-.8,30.07-4.11,3.89-9.37,5.83-14.63,5.83Zm-418.14-60.49c-7.32,0-14.44-3.78-18.39-10.56-5.91-10.15-2.48-23.18,7.67-29.09,8.69-5.05,17.62-9.76,26.76-14.09,10.62-5.01,23.29-.54,28.33,10.08,5.04,10.61.53,23.29-10.08,28.33-8.06,3.83-15.94,7.99-23.61,12.46-3.36,1.95-7.05,2.88-10.69,2.88Zm301.77-19.91c-2.71,0-5.48-.53-8.15-1.63-8.21-3.42-16.57-6.51-25.09-9.25-11.19-3.6-17.33-15.58-13.73-26.75,3.59-11.2,15.6-17.38,26.75-13.73,9.65,3.1,19.12,6.6,28.41,10.47,10.84,4.51,15.98,16.96,11.46,27.8-3.41,8.17-11.31,13.1-19.65,13.1Zm-167.45-24.15c-10.73,0-19.95-8.1-21.11-19.01-1.25-11.68,7.21-22.17,18.88-23.4,9.93-1.07,19.99-1.72,30.15-1.98,12.04.28,21.5,9,21.79,20.74.28,11.74-9,21.5-20.74,21.79-9,.21-17.9.8-26.69,1.73-.78.08-1.54.12-2.28.12Z"/>
  </g>
</svg>