<?xml version="1.0" encoding="UTF-8"?>
<svg id="_レイヤー_2" data-name="レイヤー 2" xmlns="http://www.w3.org/2000/svg" viewBox="0 0 721.14 721.14">
  <defs>
    <style>
      .cls-1 {
        fill: #56b4a8;
      }
    </style>
  </defs>
  <g id="_レイヤー_1-2" data-name="レイヤー 1">
    <path class="cls-1" d="m692.8,220.22c-18.16-42.94-44.16-81.5-77.27-114.61-33.11-33.11-71.67-59.11-114.61-77.27C456.46,9.54,409.24,0,360.57,0s-95.89,9.54-140.35,28.34c-42.94,18.16-81.5,44.16-114.61,77.27-33.11,33.11-59.11,71.67-77.27,114.61C9.54,264.68,0,311.9,0,360.57s9.54,95.89,28.34,140.35c18.16,42.94,44.16,81.5,77.27,114.61,33.11,33.11,71.67,59.11,114.61,77.27,44.46,18.81,91.68,28.34,140.35,28.34s95.89-9.54,140.35-28.34c42.94-18.16,81.5-44.16,114.61-77.27,33.11-33.11,59.11-71.67,77.27-114.61,18.81-44.46,28.34-91.68,28.34-140.35s-9.54-95.89-28.34-140.35Zm-332.23,472.93c-183.38,0-332.57-149.19-332.57-332.57S177.19,28,360.57,28s332.57,149.19,332.57,332.57-149.19,332.57-332.57,332.57ZM212.93,202.28c7.51-11.83,17.12-17.12,29.37-16.18,10.34.8,18.8,5.68,19.09,5.84,6.79,4.08,15.61,1.92,19.74-4.86,4.14-6.8,1.98-15.67-4.82-19.81-1.37-.83-13.85-8.19-30.44-9.8-23.47-2.28-43.8,8.14-57.27,29.35-4.27,6.72-2.28,15.63,4.44,19.9,2.4,1.52,5.07,2.25,7.71,2.25,4.77,0,9.44-2.36,12.18-6.69Zm69.79,94.7c0-21.5-17.43-38.92-38.92-38.92s-38.92,17.43-38.92,38.92,17.43,38.92,38.92,38.92,38.92-17.43,38.92-38.92Zm192.54-139.03c-16.59,1.61-29.07,8.97-30.44,9.8-6.8,4.14-9,13.03-4.86,19.83,4.14,6.8,12.97,8.98,19.77,4.84.08-.05,8.63-5.04,19.09-5.85,12.25-.95,21.86,4.35,29.37,16.18,2.75,4.32,7.41,6.69,12.18,6.69,2.64,0,5.32-.73,7.71-2.25,6.72-4.27,8.71-13.18,4.44-19.9-13.47-21.21-33.81-31.63-57.27-29.35Zm-9.01,300.83c-28.23,28.23-65.76,43.78-105.69,43.78s-77.46-15.55-105.69-43.78c-5.63-5.63-14.76-5.63-20.39,0-5.63,5.63-5.63,14.76,0,20.39,33.67,33.67,78.45,52.22,126.07,52.22s92.4-18.55,126.07-52.22c5.63-5.63,5.63-14.76,0-20.39-5.63-5.63-14.76-5.63-20.39,0Zm11.08-200.73c-21.5,0-38.92,17.43-38.92,38.92s17.43,38.92,38.92,38.92,38.92-17.43,38.92-38.92-17.43-38.92-38.92-38.92Z"/>
  </g>
</svg>