<?xml version="1.0" encoding="UTF-8"?>
<svg id="_レイヤー_2" data-name="レイヤー 2" xmlns="http://www.w3.org/2000/svg" viewBox="0 0 721.14 721.14">
  <defs>
    <style>
      .cls-1 {
        fill: #d64955;
      }
    </style>
  </defs>
  <g id="_レイヤー_1-2" data-name="レイヤー 1">
    <path class="cls-1" d="m692.8,220.22c-18.16-42.94-44.16-81.5-77.27-114.61-33.11-33.11-71.67-59.11-114.61-77.27C456.46,9.54,409.24,0,360.57,0s-95.89,9.54-140.35,28.34c-42.94,18.16-81.5,44.16-114.61,77.27-33.11,33.11-59.11,71.67-77.27,114.61C9.54,264.68,0,311.9,0,360.57s9.54,95.89,28.34,140.35c18.16,42.94,44.16,81.5,77.27,114.61,33.11,33.11,71.67,59.11,114.61,77.27,44.46,18.81,91.68,28.34,140.35,28.34s95.89-9.54,140.35-28.34c42.94-18.16,81.5-44.16,114.61-77.27,33.11-33.11,59.11-71.67,77.27-114.61,18.81-44.46,28.34-91.68,28.34-140.35s-9.53-95.89-28.34-140.35Zm-332.23,472.93c-183.38,0-332.57-149.19-332.57-332.57S177.19,28,360.57,28s332.57,149.19,332.57,332.57-149.19,332.57-332.57,332.57Zm-194.09-366.27c-3.74-1.78-8.2-1.07-11.2,1.79l-62.81,59.86c-4.07,3.76-7.34,8.21-9.73,13.23-4.99,10.48-5.59,22.27-1.71,33.2,3.88,10.93,11.79,19.7,22.27,24.69,6.01,2.86,12.35,4.21,18.6,4.21,16.25,0,31.86-9.15,39.3-24.78,1.65-3.47,2.83-7.15,3.52-10.93.48-2.62.71-5.3.69-7.97l6.74-83.47c.33-4.13-1.92-8.04-5.66-9.83Zm-21.05,92.15c-.03.33-.04.66-.03.99.03,1.52-.1,3.06-.37,4.56-.37,2.05-1.01,4.04-1.9,5.91-5.55,11.67-19.57,16.65-31.24,11.1-11.67-5.55-16.65-19.57-11.1-31.24,1.3-2.72,3.07-5.13,5.29-7.17.04-.04.08-.08.13-.12l43.89-41.83-4.67,57.8Zm481.45-17.28c-2.39-5.01-5.66-9.46-9.73-13.23l-62.81-59.86c-3-2.86-7.46-3.57-11.2-1.79-3.74,1.79-6,5.7-5.66,9.83l6.74,83.47c-.02,2.67.22,5.35.69,7.96.69,3.79,1.87,7.47,3.52,10.94,7.43,15.62,23.05,24.77,39.3,24.77,6.25,0,12.59-1.35,18.6-4.21,10.48-4.99,18.39-13.75,22.27-24.69,3.88-10.93,3.28-22.73-1.71-33.21Zm-29.16,39.83c-11.67,5.55-25.69.58-31.24-11.09-.89-1.87-1.53-3.86-1.9-5.92-.27-1.5-.4-3.03-.37-4.55,0-.33,0-.66-.03-.99l-4.67-57.8,43.89,41.83s.08.08.13.12c2.21,2.04,3.99,4.45,5.28,7.17,5.55,11.67.58,25.69-11.1,31.24Zm-398.6-144.6c0,21.5,17.43,38.92,38.92,38.92s38.92-17.43,38.92-38.92-17.43-38.92-38.92-38.92-38.92,17.43-38.92,38.92Zm272.45,38.92c21.5,0,38.92-17.43,38.92-38.92s-17.43-38.92-38.92-38.92-38.92,17.43-38.92,38.92,17.43,38.92,38.92,38.92Zm59.86-98.57l-52.86-46.86c-5.96-5.28-15.07-4.73-20.35,1.23-5.28,5.96-4.73,15.07,1.23,20.35l52.86,46.86c2.74,2.43,6.16,3.63,9.56,3.63,3.98,0,7.94-1.64,10.79-4.85,5.28-5.96,4.73-15.07-1.23-20.35Zm-334.12,21.57l52.86-46.86c5.96-5.28,6.51-14.39,1.23-20.35-5.28-5.96-14.39-6.51-20.35-1.23l-52.86,46.86c-5.96,5.28-6.51,14.39-1.23,20.35,2.85,3.21,6.81,4.85,10.79,4.85,3.4,0,6.81-1.2,9.56-3.63Zm157.5,134.26c-77.2,0-145.27,49.23-169.39,122.5-2.49,7.56,1.62,15.71,9.19,18.2,1.5.49,3.02.73,4.51.73,6.06,0,11.69-3.85,13.69-9.91,20.22-61.42,77.28-102.69,142-102.69s121.78,41.26,142,102.68c2.49,7.56,10.64,11.67,18.2,9.18,7.56-2.49,11.67-10.64,9.18-18.2-24.12-73.26-92.19-122.49-169.38-122.49Z"/>
  </g>
</svg>