<?xml version="1.0" encoding="UTF-8"?>
<svg id="_レイヤー_2" data-name="レイヤー 2" xmlns="http://www.w3.org/2000/svg" viewBox="0 0 721.14 721.14">
  <defs>
    <style>
      .cls-1 {
        fill: #31a1cd;
      }
    </style>
  </defs>
  <g id="_レイヤー_1-2" data-name="レイヤー 1">
    <path class="cls-1" d="m692.8,220.22c-18.16-42.94-44.16-81.5-77.27-114.61-33.11-33.11-71.67-59.11-114.61-77.27C456.46,9.54,409.24,0,360.57,0s-95.89,9.54-140.35,28.34c-42.94,18.16-81.5,44.16-114.61,77.27-33.11,33.11-59.11,71.67-77.27,114.61C9.54,264.68,0,311.9,0,360.57s9.54,95.89,28.34,140.35c18.16,42.94,44.16,81.5,77.27,114.61,33.11,33.11,71.67,59.11,114.61,77.27,44.46,18.81,91.68,28.34,140.35,28.34s95.89-9.54,140.36-28.34c42.94-18.16,81.5-44.16,114.61-77.27,33.11-33.11,59.11-71.67,77.27-114.61,18.81-44.46,28.34-91.68,28.34-140.35s-9.54-95.89-28.34-140.36Zm-332.23,472.93c-183.38,0-332.57-149.19-332.57-332.57S177.19,28,360.57,28s332.57,149.19,332.57,332.57-149.19,332.57-332.57,332.57Zm116.76-357.24c21.5,0,38.92-17.43,38.92-38.92s-17.43-38.92-38.92-38.92-38.92,17.43-38.92,38.92,17.43,38.92,38.92,38.92Zm-272.45-38.92c0,21.5,17.43,38.92,38.92,38.92s38.92-17.43,38.92-38.92-17.43-38.92-38.92-38.92-38.92,17.43-38.92,38.92Zm20.49-87.05c7.88,1.1,15.17-4.4,16.27-12.28,1.1-7.88-4.4-15.17-12.28-16.27-24.88-3.47-46,5.28-59.45,24.63-9.51,13.68-11.99,27.96-12.25,29.54-1.25,7.86,4.1,15.29,11.96,16.54.77.12,1.54.18,2.3.18,6.96,0,13.07-5.02,14.2-12.11.02-.1,1.75-9.84,7.91-18.34,7.21-9.95,17.47-13.84,31.35-11.9Zm135.19,357.45c90.51,0,163.88-73.37,163.88-163.88H196.69c0,90.51,73.37,163.88,163.88,163.88Zm190.66-361.37c-13.45-19.36-34.57-28.1-59.45-24.63-7.88,1.1-13.38,8.38-12.28,16.27,1.1,7.88,8.39,13.38,16.27,12.28,13.88-1.94,24.13,1.96,31.35,11.9,6.08,8.39,7.85,17.99,7.91,18.33,1.16,7.05,7.27,12.07,14.21,12.07.75,0,1.52-.06,2.28-.18,7.86-1.25,13.22-8.64,11.97-16.5-.25-1.58-2.73-15.86-12.25-29.54Z"/>
  </g>
</svg>