<svg width="43" height="50" viewBox="0 0 43 50" fill="none" xmlns="http://www.w3.org/2000/svg">
<path d="M6.18996 14.3942C5.21323 14.3942 4.14914 14.0895 3.25974 13.6109L2.26117 15.6128C3.34625 16.2872 4.73535 16.57 6.32014 16.57C8.59863 16.57 10.7696 15.33 10.7696 12.3708C10.7696 7.41013 5.01754 7.80202 5.01754 4.79951C5.01754 3.60281 5.95061 3.03707 7.20954 3.03707C8.03426 3.03707 8.75065 3.31993 9.46704 3.75518L10.5093 1.92749C9.57537 1.3403 8.51213 0.905046 6.90635 0.905046C4.36667 0.905046 2.52153 2.21036 2.52153 4.93C2.52153 9.80355 8.25179 9.47733 8.25179 12.458C8.25179 13.8504 7.36154 14.3942 6.18996 14.3942ZM14.6539 16.3524H17.3019V3.27656H20.2968V1.12266H11.68V3.27657H14.6539V16.3524ZM29.6938 14.1766H24.7673V9.7164H29.0211V7.56249H24.7673V3.27656H29.6938V1.12266H22.1193V16.3524H29.6938V14.1766ZM34.6204 10.826C34.7934 10.8479 35.0537 10.8912 35.5316 10.8912C39.5469 10.8912 40.6975 8.62871 40.6975 5.95243C40.6975 3.3418 39.5906 0.905029 35.2276 0.905029C34.1862 0.905029 32.9919 1.05741 31.9723 1.34027V16.3524H34.6204V10.826ZM34.6204 3.18943C34.9672 3.12418 35.3149 3.1023 35.4879 3.1023C37.3549 3.1023 38.0058 4.32089 38.0058 5.93096C38.0058 7.432 37.3986 8.69396 35.4879 8.69396C35.3149 8.69396 34.9672 8.69396 34.6204 8.62872V3.18943ZM11.5893 18.2575C4.53043 18.2575 0.536133 24.5884 0.536133 33.992C0.582323 43.2095 4.29779 49.5408 11.2643 49.5408C18.4626 49.5408 22.2704 43.4423 22.2704 33.7129C22.2704 24.7748 18.88 18.2575 11.5893 18.2575ZM11.4499 45.1648C8.29209 45.1648 6.24875 41.3473 6.29494 33.992C6.24875 26.4038 8.38448 22.6331 11.4499 22.6331C14.8865 22.6331 16.5587 26.7764 16.5587 33.8059C16.5587 41.0678 14.7933 45.1648 11.4499 45.1648ZM30.2103 44.28V44.187L32.8575 41.9059C38.1057 37.0181 41.9135 32.7351 41.9135 27.4284C41.9135 22.4938 38.6625 18.2575 31.9757 18.2575C28.167 18.2575 24.8698 19.6075 22.687 21.3762L24.3591 25.4264C25.8919 24.2625 28.167 22.9126 30.8142 22.9126C34.7623 22.9126 36.2018 25.2867 36.2018 27.9869C36.1547 31.9904 32.8113 35.6214 25.7063 42.2317L22.1302 45.5369V49.0285H42.6106V44.28L30.2103 44.28Z" fill="url(#paint0_linear_280_365)"/>
<defs>
<linearGradient id="paint0_linear_280_365" x1="0.534228" y1="25.2168" x2="42.6087" y2="25.2168" gradientUnits="userSpaceOnUse">
<stop stop-color="#2CABDB"/>
<stop offset="1" stop-color="#8B9BCE"/>
</linearGradient>
</defs>
</svg>
