<svg width="30" height="78" viewBox="0 0 30 78" fill="none" xmlns="http://www.w3.org/2000/svg">
<path d="M15.0005 15.8643C16.1255 15.8643 17.0386 14.9522 17.0386 13.8267V9.94044C17.0386 8.81495 16.1255 7.90284 15.0005 7.90284C13.8755 7.90284 12.9624 8.81495 12.9624 9.94044V13.8267C12.9624 14.9522 13.8755 15.8643 15.0005 15.8643ZM15.0005 25.5791C16.1255 25.5791 17.0386 24.667 17.0386 23.5415V19.6553C17.0386 18.5298 16.1255 17.6177 15.0005 17.6177C13.8755 17.6177 12.9624 18.5298 12.9624 19.6553V23.5415C12.9624 24.667 13.8755 25.5791 15.0005 25.5791ZM15.0005 35.2939C16.1255 35.2939 17.0386 34.3818 17.0386 33.2563V29.3706C17.0386 28.2451 16.1255 27.333 15.0005 27.333C13.8755 27.333 12.9624 28.2451 12.9624 29.3706V33.2563C12.9624 34.3818 13.8755 35.2939 15.0005 35.2939ZM15.0005 6.14893C16.1255 6.14893 17.0386 5.23682 17.0386 4.11133V2.23487C17.0386 1.10938 16.1255 0.197266 15.0005 0.197266C13.8755 0.197266 12.9624 1.10938 12.9624 2.23487V4.11133C12.9624 5.23682 13.8755 6.14893 15.0005 6.14893ZM15.0005 45.0093C16.1255 45.0093 17.0386 44.0972 17.0386 42.9717V39.0854C17.0386 37.96 16.1255 37.0478 15.0005 37.0478C13.8755 37.0478 12.9624 37.96 12.9624 39.0854V42.9717C12.9624 44.0972 13.8755 45.0093 15.0005 45.0093ZM15.0005 54.7241C16.1255 54.7241 17.0386 53.812 17.0386 52.6865V48.8008C17.0386 47.6753 16.1255 46.7632 15.0005 46.7632C13.8755 46.7632 12.9624 47.6753 12.9624 48.8008V52.6865C12.9624 53.812 13.8755 54.7241 15.0005 54.7241ZM15.0005 64.4394C16.1255 64.4394 17.0386 63.5273 17.0386 62.4018V58.5156C17.0386 57.3901 16.1255 56.478 15.0005 56.478C13.8755 56.478 12.9624 57.3901 12.9624 58.5156V62.4018C12.9624 63.5273 13.8755 64.4394 15.0005 64.4394ZM29.1255 58.9101C28.2915 58.1538 27.0024 58.2163 26.2476 59.0503L17.0386 69.2004V68.2305C17.0386 67.105 16.1255 66.1929 15.0005 66.1929C13.8755 66.1929 12.9624 67.105 12.9624 68.2305V69.2006L3.75243 59.0503C2.99657 58.2168 1.70653 58.1523 0.874501 58.9101C0.0414909 59.6665 -0.0219791 60.9551 0.734851 61.7886L15.0005 77.5112L29.2651 61.7886C30.022 60.9551 29.9585 59.6665 29.1255 58.9101Z" fill="url(#paint0_linear_280_369)"/>
<defs>
<linearGradient id="paint0_linear_280_369" x1="0.204715" y1="38.8446" x2="29.7926" y2="38.8446" gradientUnits="userSpaceOnUse">
<stop stop-color="#2CABDB"/>
<stop offset="1" stop-color="#8B9BCE"/>
</linearGradient>
</defs>
</svg>
