<svg width="40" height="50" viewBox="0 0 40 50" fill="none" xmlns="http://www.w3.org/2000/svg">
<path d="M5.18971 14.3942C4.21298 14.3942 3.14889 14.0895 2.25949 13.6109L1.26092 15.6128C2.346 16.2872 3.7351 16.57 5.31989 16.57C7.59838 16.57 9.76938 15.33 9.76938 12.3708C9.76938 7.41013 4.01729 7.80202 4.01729 4.79951C4.01729 3.60281 4.95036 3.03707 6.20928 3.03707C7.03401 3.03707 7.75039 3.31993 8.46678 3.75518L9.50903 1.92749C8.57512 1.3403 7.51187 0.905046 5.9061 0.905046C3.36642 0.905046 1.52128 2.21036 1.52128 4.93C1.52128 9.80355 7.25154 9.47733 7.25154 12.458C7.25154 13.8504 6.36129 14.3942 5.18971 14.3942ZM13.6537 16.3524H16.3017V3.27656H19.2966V1.12266H10.6798V3.27657H13.6537V16.3524ZM28.6936 14.1766H23.7671V9.7164H28.0209V7.56249H23.7671V3.27656H28.6936V1.12266H21.119V16.3524H28.6936V14.1766ZM34.2273 0.905029C33.1859 0.905029 31.9916 1.05741 30.9721 1.34027V16.3524H33.6201V10.826C33.7931 10.8479 34.0535 10.8912 34.5313 10.8912C38.5466 10.8912 39.6972 8.62871 39.6972 5.95243C39.6972 3.3418 38.5903 0.905029 34.2273 0.905029ZM34.4877 8.69396C34.3147 8.69396 33.967 8.69396 33.6201 8.62872V3.18943C33.967 3.12419 34.3147 3.10231 34.4877 3.10231C36.3546 3.10231 37.0055 4.3209 37.0055 5.93097C37.0055 7.43201 36.3983 8.69396 34.4877 8.69396ZM11.6313 18.2575C4.57242 18.2575 0.578125 24.5884 0.578125 33.992C0.624316 43.2095 4.33978 49.5408 11.3063 49.5408C18.5046 49.5408 22.3124 43.4423 22.3124 33.7129C22.3124 24.7748 18.922 18.2575 11.6313 18.2575ZM11.4919 45.1648C8.33408 45.1648 6.29074 41.3473 6.33693 33.992C6.29074 26.4038 8.42647 22.6331 11.4919 22.6331C14.9285 22.6331 16.6007 26.7764 16.6007 33.8059C16.6007 41.0678 14.8353 45.1648 11.4919 45.1648ZM25.4694 22.4003L26.4445 26.7301L31.9706 23.9368H32.0639V49.0285H37.59V18.7694H32.8071L25.4694 22.4003Z" fill="url(#paint0_linear_280_363)"/>
<defs>
<linearGradient id="paint0_linear_280_363" x1="0.576354" y1="25.2168" x2="39.6954" y2="25.2168" gradientUnits="userSpaceOnUse">
<stop stop-color="#2CABDB"/>
<stop offset="1" stop-color="#8B9BCE"/>
</linearGradient>
</defs>
</svg>
