<?xml version="1.0" encoding="UTF-8"?>
<svg id="_レイヤー_1" data-name="レイヤー 1" xmlns="http://www.w3.org/2000/svg" xmlns:xlink="http://www.w3.org/1999/xlink" viewBox="0 0 512 512">
  <defs>
    <style>
      .cls-1 {
        fill: url(#_名称未設定グラデーション_2);
      }
    </style>
    <linearGradient id="_名称未設定グラデーション_2" data-name="名称未設定グラデーション 2" x1="8.95566" y1="3.00819" x2="13.64154" y2="-4.51732" gradientTransform="translate(-340.39901 250.07334) scale(52.291 -38.90668)" gradientUnits="userSpaceOnUse">
      <stop offset="0" stop-color="#2cabdb"/>
      <stop offset="1" stop-color="#8b9bce"/>
    </linearGradient>
  </defs>
  <path id="_パス_1" data-name="パス 1" class="cls-1" d="m501.02907,216.16911v172.29958c-.94016,28.45176-24.76704,50.75435-53.21881,49.81419-27.13157-.89651-48.91764-22.68262-49.81419-49.81419v-172.29958c-1.01431-24.42859-21.35449-43.57425-45.79974-43.11005-11.78515.17475-23.13375,4.48726-32.06076,12.18327-7.87327,8.39921-12.35703,19.41664-12.58626,30.92676v172.2996c-.94,28.4518-24.76676,50.7545-53.21854,49.81448-27.13181-.89641-48.91807-22.68269-49.81448-49.81448v-172.29958c-1.01433-24.42859-21.35449-43.57425-45.79973-43.11005-24.22215-.39181-44.19468,18.88913-44.65638,43.11005v173.37734c-.88225,27.62336-23.9171,49.34314-51.54462,48.60189-27.8445.61898-50.91871-21.45166-51.53769-49.29617-.00277-.1247-.00508-.24939-.00693-.37409v-172.30898c0-78.43216,66.39884-142.45057,147.68938-142.45057,35.39804-.06436,69.7475,12.01286,97.31623,34.21625,27.073-22.3183,61.11519-34.43619,96.20104-34.24437,82.47138,0,148.83274,64.04653,148.83274,142.45057"/>
</svg>