<?xml version="1.0" standalone="no"?>
<!DOCTYPE svg PUBLIC "-//W3C//DTD SVG 20010904//EN"
 "http://www.w3.org/TR/2001/REC-SVG-20010904/DTD/svg10.dtd">
<svg version="1.0" xmlns="http://www.w3.org/2000/svg"
 width="700.000000pt" height="700.000000pt" viewBox="0 0 700.000000 700.000000"
 preserveAspectRatio="xMidYMid meet">
<metadata>
Created by potrace 1.14, written by Peter Selinger 2001-2017
</metadata>
<g transform="translate(0.000000,700.000000) scale(0.100000,-0.100000)"
fill="#000000" stroke="none">
<path d="M1990 5987 c-3 -3 -33 -7 -66 -10 -34 -3 -72 -8 -85 -11 -13 -3 -37
-7 -54 -10 -16 -2 -75 -15 -130 -30 -580 -148 -1073 -548 -1319 -1071 -56
-119 -90 -209 -121 -325 -64 -239 -63 -218 -64 -1630 0 -1325 -1 -1307 37
-1425 65 -203 246 -374 468 -441 46 -15 91 -19 204 -18 135 0 151 2 231 30
173 61 314 185 395 349 77 156 74 90 74 1478 0 1036 3 1242 15 1293 65 276
302 464 590 466 55 0 120 -5 145 -11 238 -63 402 -219 466 -446 15 -55 17
-172 19 -1300 1 -682 5 -1256 9 -1275 54 -284 245 -493 521 -569 90 -25 258
-26 345 -2 144 41 231 90 325 185 79 80 90 96 136 191 76 159 71 55 74 1460 2
693 5 1271 9 1284 33 138 106 271 185 336 73 61 220 125 323 140 72 12 190 7
248 -10 30 -8 63 -17 72 -19 51 -13 151 -79 213 -141 102 -101 163 -221 180
-352 4 -29 7 -596 7 -1260 1 -1329 -1 -1281 63 -1419 42 -91 71 -134 141 -206
72 -74 176 -139 279 -174 110 -38 285 -44 396 -13 217 60 383 201 471 404 60
136 58 99 58 1464 0 1353 -1 1366 -55 1591 -64 261 -196 528 -371 747 -45 56
-221 235 -277 280 -151 124 -356 247 -542 324 -80 32 -274 92 -340 104 -16 2
-41 7 -55 10 -14 2 -36 7 -50 10 -77 15 -166 20 -345 20 -172 0 -327 -9 -345
-20 -3 -2 -23 -6 -45 -9 -267 -42 -620 -197 -849 -373 -38 -29 -74 -53 -79
-53 -5 0 -27 15 -50 34 -108 87 -376 238 -492 277 -22 7 -44 16 -50 20 -30 20
-315 95 -395 104 -25 3 -56 8 -70 11 -29 7 -444 17 -450 11z"/>
</g>
</svg>
