<svg xmlns="http://www.w3.org/2000/svg" xmlns:xlink="http://www.w3.org/1999/xlink" width="36"
	height="36" viewBox="0 0 36 36">
	<defs>
		<clipPath id="clip-path">
			<rect id="長方形_16" data-name="長方形 16" width="21.259" height="16.731" fill="#333" />
		</clipPath>
	</defs>
	<g id="グループ_7511" data-name="グループ 7511" transform="translate(-40 -817)">
		<g id="グループ_7498" data-name="グループ 7498" transform="translate(-365.401 499.599)">
			<rect id="長方形_4037" data-name="長方形 4037" width="36" height="36" rx="18"
				transform="translate(405.401 317.401)" fill="none" />
			<g id="グループ_7497" data-name="グループ 7497" transform="translate(412.772 327.036)">
				<g id="グループ_22" data-name="グループ 22" clip-path="url(#clip-path)">
					<path id="パス_18" data-name="パス 18"
						d="M21.259,1.548a1.547,1.547,0,0,1-.2.755L17.68,8.366l3.381,6.063a1.548,1.548,0,0,1-1.352,2.3H.7a.7.7,0,0,1-.7-.7V.7A.7.7,0,0,1,.7,0H19.709a1.534,1.534,0,0,1,1.335.764,1.544,1.544,0,0,1,.215.784m-1.421.072a.148.148,0,0,0-.129-.22H1.4v13.93H19.709a.148.148,0,0,0,.129-.22l-3.572-6.4a.7.7,0,0,1,0-.682Z"
						fill="#333" />
					<path id="パス_19" data-name="パス 19"
						d="M58.574,49.207a.7.7,0,0,0-.666-.484H55.946l-.606-1.866a.7.7,0,0,0-1.332,0L53.4,48.723H51.439a.7.7,0,0,0-.412,1.267l1.588,1.154-.606,1.866a.7.7,0,0,0,1.078.783l1.588-1.153,1.588,1.153a.7.7,0,0,0,1.078-.783l-.606-1.866L58.32,49.99a.7.7,0,0,0,.254-.783"
						transform="translate(-45.718 -41.784)" fill="#333" />
				</g>
			</g>
		</g>
	</g>
</svg>