<svg xmlns="http://www.w3.org/2000/svg" xmlns:xlink="http://www.w3.org/1999/xlink" width="36"
	height="36" viewBox="0 0 36 36">
	<defs>
		<clipPath id="clip-path">
			<rect id="長方形_19" data-name="長方形 19" width="18.172" height="18.091" fill="#333" />
		</clipPath>
	</defs>
	<g id="グループ_7512" data-name="グループ 7512" transform="translate(-40 -1084)">
		<g id="グループ_7502" data-name="グループ 7502" transform="translate(-455.165 746.835)">
			<rect id="長方形_4038" data-name="長方形 4038" width="36" height="36" rx="18"
				transform="translate(495.165 337.165)" fill="#f1eee7" />
			<g id="グループ_7499" data-name="グループ 7499" transform="translate(504.143 346.149)">
				<g id="グループ_28" data-name="グループ 28" clip-path="url(#clip-path)">
					<path id="パス_30" data-name="パス 30"
						d="M51.146,10.453a5.226,5.226,0,1,1,5.226-5.226,5.232,5.232,0,0,1-5.226,5.226m0-9.262a4.036,4.036,0,1,0,4.036,4.036,4.041,4.041,0,0,0-4.036-4.036"
						transform="translate(-42.06 -0.001)" fill="#333" />
					<path id="パス_31" data-name="パス 31"
						d="M.6,119.011a.6.6,0,0,1-.577-.739,11.542,11.542,0,0,1,3.408-5.935,8.516,8.516,0,0,1,11.321,0,11.542,11.542,0,0,1,3.408,5.935.595.595,0,0,1-1.154.289c-1.11-4.434-4.143-7.188-7.914-7.188s-6.8,2.754-7.914,7.188a.6.6,0,0,1-.577.451"
						transform="translate(0 -100.921)" fill="#333" />
				</g>
			</g>
		</g>
	</g>
</svg>