<svg xmlns="http://www.w3.org/2000/svg" xmlns:xlink="http://www.w3.org/1999/xlink" width="36"
	height="36" viewBox="0 0 36 36">
	<defs>
		<clipPath id="clip-path">
			<rect id="長方形_4040" data-name="長方形 4040" width="18.473" height="17.991" fill="#333" />
		</clipPath>
	</defs>
	<g id="グループ_7513" data-name="グループ 7513" transform="translate(-40 -1351)">
		<g id="グループ_7501" data-name="グループ 7501" transform="translate(-563.229 1053.771)">
			<rect id="長方形_4039" data-name="長方形 4039" width="36" height="36" rx="18"
				transform="translate(603.229 297.229)" fill="#f1eee7" />
			<g id="グループ_7500" data-name="グループ 7500" transform="translate(611.992 306.233)"
				clip-path="url(#clip-path)">
				<path id="パス_2593" data-name="パス 2593"
					d="M3.2,47.887a1.7,1.7,0,1,1,1.7-1.7,1.7,1.7,0,0,1-1.7,1.7m0-2.473a.773.773,0,1,0,.773.773.774.774,0,0,0-.773-.773"
					transform="translate(-1.383 -41.014)" fill="#333" />
				<path id="パス_2594" data-name="パス 2594"
					d="M1.817,46.622A1.817,1.817,0,1,1,3.635,44.8a1.819,1.819,0,0,1-1.817,1.817m0-3.4A1.583,1.583,0,1,0,3.4,44.8a1.585,1.585,0,0,0-1.583-1.583m0,2.473a.89.89,0,1,1,.89-.89.891.891,0,0,1-.89.89m0-1.546a.656.656,0,1,0,.656.656.656.656,0,0,0-.656-.656"
					transform="translate(0 -39.631)" fill="#333" />
				<path id="パス_2595" data-name="パス 2595"
					d="M193.263,47.887a1.7,1.7,0,1,1,1.7-1.7,1.7,1.7,0,0,1-1.7,1.7m0-2.473a.773.773,0,1,0,.773.773.774.774,0,0,0-.773-.773"
					transform="translate(-176.608 -41.014)" fill="#333" />
				<path id="パス_2596" data-name="パス 2596"
					d="M191.88,46.622A1.817,1.817,0,1,1,193.7,44.8a1.819,1.819,0,0,1-1.817,1.817m0-3.4a1.583,1.583,0,1,0,1.583,1.583,1.585,1.585,0,0,0-1.583-1.583m0,2.473a.89.89,0,1,1,.89-.89.891.891,0,0,1-.89.89m0-1.546a.656.656,0,1,0,.656.656.656.656,0,0,0-.656-.656"
					transform="translate(-175.225 -39.631)" fill="#333" />
				<path id="パス_2597" data-name="パス 2597"
					d="M98.231,4.9a1.7,1.7,0,1,1,1.7-1.7,1.7,1.7,0,0,1-1.7,1.7m0-2.473A.773.773,0,1,0,99,3.2a.774.774,0,0,0-.773-.773"
					transform="translate(-88.995 -1.383)" fill="#333" />
				<path id="パス_2598" data-name="パス 2598"
					d="M96.849,3.635a1.817,1.817,0,1,1,1.817-1.817,1.819,1.819,0,0,1-1.817,1.817m0-3.4a1.583,1.583,0,1,0,1.583,1.583A1.585,1.585,0,0,0,96.849.234m0,2.473a.89.89,0,1,1,.89-.89.891.891,0,0,1-.89.89m0-1.546a.656.656,0,1,0,.656.656.656.656,0,0,0-.656-.656"
					transform="translate(-87.613)" fill="#333" />
				<path id="パス_2599" data-name="パス 2599"
					d="M31.374,66.374H21.109a.77.77,0,0,1-.752-.595l-.4-1.7h0l-1.7-7.216a.772.772,0,0,1,1.2-.807l3.094,2.2,3.026-5.259a.772.772,0,0,1,1.339,0l3.026,5.259,3.093-2.2a.773.773,0,0,1,1.2.807l-2.1,8.919a.77.77,0,0,1-.752.595m-10.142-.927h10.02l1.981-8.4L30.058,59.3a.47.47,0,0,1-.368.075.465.465,0,0,1-.3-.222L26.242,53.69,23.1,59.158a.463.463,0,0,1-.67.147l-3.174-2.257Z"
					transform="translate(-16.81 -48.5)" fill="#333" />
				<path id="パス_2600" data-name="パス 2600"
					d="M29.991,65.109H19.726a.887.887,0,0,1-.866-.685l-2.1-8.919a.889.889,0,0,1,1.38-.93L21.126,56.7l2.961-5.147a.89.89,0,0,1,1.541,0L28.591,56.7l2.988-2.125a.89.89,0,0,1,1.381.93l-2.1,8.919a.886.886,0,0,1-.866.685m-11.3-2.428.4,1.689a.653.653,0,0,0,.638.5H29.991a.653.653,0,0,0,.638-.5l2.1-8.919a.655.655,0,0,0-1.017-.685l-3.2,2.275-3.09-5.371a.655.655,0,0,0-1.136,0l-3.09,5.37L18,54.766a.655.655,0,0,0-1.017.685Zm11.271,1.5H19.756L17.683,55.39l3.427,2.437a.354.354,0,0,0,.276.056.348.348,0,0,0,.225-.166l3.248-5.644,3.247,5.644a.349.349,0,0,0,.226.166.354.354,0,0,0,.275-.057l3.427-2.437Zm-10.02-.234h9.834l1.888-8.007-2.921,2.077a.58.58,0,0,1-.84-.184l-3.044-5.292-3.045,5.292a.583.583,0,0,1-.379.278.589.589,0,0,1-.461-.094l-2.921-2.078Z"
					transform="translate(-15.427 -47.118)" fill="#333" />
				<path id="パス_2601" data-name="パス 2601"
					d="M50.677,184.984H41.452a.464.464,0,1,1,0-.927h9.226a.464.464,0,0,1,0,.927"
					transform="translate(-37.788 -169.688)" fill="#333" />
				<path id="パス_2602" data-name="パス 2602"
					d="M49.3,183.719H40.07a.581.581,0,0,1,0-1.162H49.3a.581.581,0,0,1,0,1.162m-9.226-.927a.347.347,0,0,0,0,.693H49.3a.347.347,0,0,0,0-.693Z"
					transform="translate(-36.406 -168.305)" fill="#333" />
			</g>
		</g>
	</g>
</svg>