<svg xmlns="http://www.w3.org/2000/svg" xmlns:xlink="http://www.w3.org/1999/xlink" width="36"
	height="36" viewBox="0 0 36 36">
	<defs>
		<clipPath id="clip-path">
			<rect id="長方形_21" data-name="長方形 21" width="19.239" height="19.59" fill="#333" />
		</clipPath>
	</defs>
	<g id="グループ_7496" data-name="グループ 7496" transform="translate(-319.871 -399.871)">
		<rect id="長方形_4036" data-name="長方形 4036" width="36" height="36" rx="18"
			transform="translate(319.871 399.871)" fill="#f1eee7" />
		<g id="グループ_7495" data-name="グループ 7495" transform="translate(328.385 408.385)">
			<g id="グループ_30" data-name="グループ 30" clip-path="url(#clip-path)">
				<path id="パス_32" data-name="パス 32"
					d="M19.685,95.153H3.169A1.17,1.17,0,0,1,2,93.983V84.976a1.17,1.17,0,0,1,1.169-1.169H19.685a1.17,1.17,0,0,1,1.169,1.169v9.007a1.17,1.17,0,0,1-1.169,1.169M3.169,84.693a.283.283,0,0,0-.283.283v9.007a.283.283,0,0,0,.283.283H19.685a.283.283,0,0,0,.283-.283V84.976a.283.283,0,0,0-.283-.283Z"
					transform="translate(-1.808 -75.754)" fill="#333" />
				<path id="パス_33" data-name="パス 33"
					d="M17.878,93.537H1.361A1.363,1.363,0,0,1,0,92.176V83.168a1.363,1.363,0,0,1,1.361-1.361H17.878a1.363,1.363,0,0,1,1.361,1.361v9.007a1.363,1.363,0,0,1-1.361,1.361M1.361,82.191a.978.978,0,0,0-.977.977v9.007a.978.978,0,0,0,.977.977H17.878a.978.978,0,0,0,.977-.977V83.168a.978.978,0,0,0-.977-.977ZM17.878,92.651H1.361a.476.476,0,0,1-.475-.475V83.168a.476.476,0,0,1,.475-.475H17.878a.476.476,0,0,1,.475.475v9.007a.476.476,0,0,1-.475.475M1.361,83.078a.091.091,0,0,0-.091.091v9.007a.091.091,0,0,0,.091.091H17.878a.091.091,0,0,0,.091-.091V83.168a.091.091,0,0,0-.091-.091Z"
					transform="translate(0 -73.947)" fill="#333" />
				<path id="パス_34" data-name="パス 34"
					d="M47.545,9.042H45.407a.443.443,0,0,1-.395-.242L41.886,2.652a.443.443,0,0,1,.393-.644L44.413,2h0a.443.443,0,0,1,.395.242L47.94,8.4a.443.443,0,0,1-.395.644m-1.867-.886h1.144L44.144,2.887,43,2.892Z"
					transform="translate(-37.818 -1.808)" fill="#333" />
				<path id="パス_35" data-name="パス 35"
					d="M45.743,7.427H43.6a.633.633,0,0,1-.566-.347L39.912.931a.635.635,0,0,1,.564-.923L42.61,0a.633.633,0,0,1,.569.348L46.309,6.5a.635.635,0,0,1-.566.923M42.613.384,40.477.392a.251.251,0,0,0-.223.364L43.381,6.9a.25.25,0,0,0,.224.137h2.139a.251.251,0,0,0,.224-.365L42.836.522a.249.249,0,0,0-.223-.137M45.021,6.54H43.876a.192.192,0,0,1-.171-.105L41.028,1.171A.192.192,0,0,1,41.2.892l1.142,0a.2.2,0,0,1,.172.105l2.679,5.269a.192.192,0,0,1-.171.279m-1.027-.384h.713L42.224,1.272l-.712,0Z"
					transform="translate(-36.015)" fill="#333" />
				<path id="パス_36" data-name="パス 36"
					d="M105.665,8.962h0a.443.443,0,0,1-.4-.244L104.2,6.592a.442.442,0,0,1,0-.4l1.966-3.908a.443.443,0,0,1,.4-.244H108.7a.443.443,0,0,1,.4.642l-3.035,6.034a.443.443,0,0,1-.4.244m-.573-2.569.573,1.14,2.317-4.605h-1.147Z"
					transform="translate(-94.146 -1.846)" fill="#333" />
				<path id="パス_37" data-name="パス 37"
					d="M103.86,7.346a.632.632,0,0,1-.568-.35L102.224,4.87a.637.637,0,0,1,0-.571L104.19.391a.632.632,0,0,1,.568-.35H106.9a.639.639,0,0,1,.541.3.631.631,0,0,1,.027.619L104.428,7a.631.631,0,0,1-.567.35m.9-6.92a.25.25,0,0,0-.224.138l-1.966,3.909a.251.251,0,0,0,0,.225l1.069,2.126a.251.251,0,0,0,.448,0L107.12.789a.249.249,0,0,0-.011-.244A.252.252,0,0,0,106.9.425Zm-.9,5.491h0a.192.192,0,0,1-.172-.106l-.573-1.14a.192.192,0,0,1,0-.173l1.743-3.465a.192.192,0,0,1,.172-.106h1.147a.192.192,0,0,1,.172.278l-2.316,4.605a.192.192,0,0,1-.172.106M103.5,4.585l.358.712,2-3.985h-.717Z"
					transform="translate(-92.341 -0.037)" fill="#333" />
				<rect id="長方形_20" data-name="長方形 20" width="13.844" height="1.566"
					transform="translate(2.698 10.297)" fill="#333" />
			</g>
		</g>
	</g>
</svg>