<svg width="43" height="30" viewBox="0 0 43 30" fill="none" xmlns="http://www.w3.org/2000/svg">
<path d="M43 2.36346C43 1.0609 41.9241 0 40.6091 0H2.39686C1.0759 0 0 1.0609 0 2.36346V27.6424C0 28.2672 0.251043 28.8271 0.651515 29.2515C0.669447 29.275 0.675424 29.2986 0.693356 29.3163C0.717264 29.3458 0.753128 29.3576 0.783014 29.3752C1.20739 29.7583 1.76925 30 2.39088 30H40.6031C41.2248 30 41.7866 29.7583 42.217 29.3752C42.2469 29.3517 42.2768 29.3399 42.3066 29.3163C42.3246 29.2986 42.3306 29.275 42.3485 29.2515C42.749 28.8271 43 28.2672 43 27.6424V2.36346ZM1.46441 2.43418L14.7876 15.0059L1.46441 27.5835V2.43418ZM2.53433 1.44401H40.4657L26.6404 14.4872C26.6404 14.4872 26.6284 14.4931 26.6225 14.499C26.6225 14.499 26.6225 14.5049 26.6165 14.5108L22.1993 18.6778C21.8228 19.0314 21.1892 19.0314 20.8126 18.6778L16.3895 14.5049C16.3895 14.5049 16.3895 14.499 16.3835 14.4931C16.3835 14.4931 16.3716 14.4872 16.3656 14.4813L2.53433 1.44401ZM15.8456 16.002L19.7905 19.7269C20.2627 20.169 20.8784 20.3929 21.5 20.3929C22.1216 20.3929 22.7373 20.169 23.2095 19.7269L27.1544 16.002L40.4418 28.556H2.55824L15.8456 16.002ZM28.2124 15L41.5356 2.43418V27.5835L28.2124 15Z" fill="black"/>
</svg>
