<svg width="40" height="40" viewBox="0 0 40 40" fill="none" xmlns="http://www.w3.org/2000/svg">
<path d="M29.8156 39.9997C28.2892 39.9997 26.6474 39.7689 24.9094 39.3007C19.7979 37.9282 14.4684 34.6574 9.90214 30.0911C5.33584 25.5248 2.06504 20.1953 0.692583 15.0839C-0.718352 9.81855 0.0384224 5.38694 2.82181 2.60355C2.82181 2.60355 2.83464 2.59713 2.83464 2.59072C4.60472 0.833465 8.35011 0.0702779 8.50403 0.0382112C9.47886 -0.154189 10.5242 0.397358 10.8834 1.30164L14.7506 10.973C15.0905 11.8195 14.834 12.9675 14.167 13.6345L11.3644 16.4371C11.0758 16.7257 10.986 17.1426 11.1335 17.4761L11.1784 17.5595L10.5242 18.002L11.2169 17.6236C12.3841 19.7656 14.058 21.9462 16.0525 23.9471C18.0535 25.9481 20.2404 27.622 22.3761 28.7828C22.3953 28.7956 22.421 28.8085 22.4402 28.8213L22.5492 28.879C22.8571 29.0201 23.274 28.9239 23.5626 28.6353L26.3652 25.8327C27.0322 25.1593 28.1802 24.9091 29.0267 25.2491L38.698 29.1163C39.6023 29.4819 40.1539 30.5272 39.955 31.5021C39.923 31.6624 39.1534 35.4206 37.3897 37.1843C35.5234 39.0506 32.9132 40.0061 29.8156 40.0061V39.9997ZM3.91849 3.72588C1.55838 6.09882 0.949117 9.9853 2.21254 14.6735C3.51445 19.5219 6.64416 24.6077 11.0181 28.9752C15.392 33.3491 20.4713 36.4724 25.3198 37.7807C30.0208 39.0441 33.9137 38.4349 36.2802 36.0619C37.4603 34.8819 38.2234 32.137 38.4158 31.1814C38.4607 30.9505 38.3132 30.6491 38.1144 30.5657L28.4431 26.7049C28.2122 26.6087 27.7184 26.7049 27.4811 26.9422L24.6785 29.7448C23.9281 30.4952 22.8058 30.7132 21.8823 30.2964L21.7412 30.2258C21.7412 30.2258 21.677 30.1937 21.6642 30.1873C21.6385 30.1745 21.6193 30.1617 21.6001 30.1488C19.3426 28.9175 17.0402 27.1538 14.943 25.0567C12.8394 22.9531 11.0758 20.6443 9.83801 18.3739L9.79311 18.297C9.77387 18.2649 9.74181 18.2072 9.71615 18.1431C9.28646 17.1939 9.51092 16.0651 10.2549 15.3212L13.0639 12.5186C13.3076 12.2749 13.391 11.7874 13.3012 11.5502L9.42755 1.88525C9.35059 1.68644 9.04275 1.53893 8.81187 1.58383C7.85628 1.77623 5.11779 2.533 3.93132 3.71947C3.93132 3.71947 3.92491 3.72588 3.91849 3.7323V3.72588Z" fill="black"/>
</svg>
