<svg width="263" height="48" viewBox="0 0 263 48" fill="none" xmlns="http://www.w3.org/2000/svg">
<g clip-path="url(#clip0_1_526)">
<path d="M41.9205 27.5629V43.0324C41.9205 45.5162 39.9674 47.4936 37.5141 47.4936C35.0609 47.4936 33.1078 45.5041 33.1078 43.0324V27.5629C33.1078 25.477 31.3452 23.6925 29.1897 23.6925C28.2131 23.6925 27.2366 24.0904 26.4506 24.7897C25.7599 25.5855 25.3788 26.5742 25.3788 27.5629V43.0324C25.3788 45.5162 23.4257 47.4936 20.9724 47.4936C18.5192 47.4936 16.5661 45.5041 16.5661 43.0324V27.5629C16.5661 25.477 14.8035 23.6925 12.648 23.6925C10.4924 23.6925 8.82517 25.3806 8.82517 27.5629V43.1289C8.82517 45.5041 6.87208 47.4936 4.41881 47.4936C1.96554 47.4936 0.0124512 45.5041 0.0124512 43.0324V27.5629C0.0124512 20.5215 5.69308 14.7702 12.648 14.7702C15.8753 14.7702 18.7216 15.9638 20.9724 17.8448C23.2232 15.8674 26.1648 14.7702 29.2016 14.7702C36.2518 14.7702 41.9324 20.5215 41.9324 27.5629H41.9205ZM78.4575 31.4333C78.4575 40.2592 71.3121 47.4936 62.4875 47.4936C58.1764 47.4936 54.163 45.902 51.2215 42.8274C48.1847 39.7528 46.5174 35.6895 46.5174 31.4212C46.5174 22.4989 53.6628 15.2524 62.4875 15.2524C71.3121 15.2524 78.4575 22.4868 78.4575 31.4212V31.4333ZM69.6448 31.4333C69.6448 27.4665 66.4174 24.1989 62.4994 24.1989C58.5813 24.1989 55.3539 27.4665 55.3539 31.4333C55.3539 33.3142 56.1399 35.0987 57.4142 36.4974C58.7837 37.8839 60.5463 38.5833 62.5113 38.5833C66.4294 38.5833 69.6567 35.4122 69.6567 31.4454L69.6448 31.4333ZM111.469 20.7264L101.68 44.8289C100.989 46.517 99.4294 47.6021 97.5716 47.6021C95.809 47.6021 94.237 46.517 93.5582 44.8289L83.6618 20.7264C82.6852 18.4476 83.7571 15.8674 86.0079 14.8787C88.2587 13.9864 90.8072 15.0716 91.7838 17.3625C91.7838 17.3625 94.7253 24.5968 97.5597 31.4454C100.394 24.6089 103.336 17.3625 103.336 17.3625C104.312 15.0836 106.861 13.9864 109.111 14.8787C111.362 15.8674 112.446 18.4476 111.458 20.7264H111.469ZM127.047 4.95554C127.047 7.63225 124.891 9.91108 122.152 9.91108C119.413 9.91108 117.257 7.63225 117.257 4.95554C117.257 2.27882 119.508 0 122.152 0C124.796 0 127.047 2.18237 127.047 4.95554ZM126.558 18.0497V43.0445C126.558 45.5283 124.593 47.5056 122.152 47.5056C119.711 47.5056 117.746 45.5162 117.746 43.0445V18.0497C117.746 15.6745 119.711 13.5885 122.152 13.5885C124.593 13.5885 126.558 15.6745 126.558 18.0497ZM131.655 42.9359V29.7453C131.655 21.4137 138.408 14.6737 146.637 14.6737C154.866 14.6737 161.619 21.4137 161.619 29.7453V42.9359C161.619 45.4197 159.558 47.3971 157.212 47.3971C154.866 47.3971 152.806 45.4077 152.806 42.9359V29.7453C152.806 26.3693 149.96 23.5961 146.637 23.5961C143.314 23.5961 140.468 26.3693 140.468 29.7453V42.9359C140.468 45.4197 138.515 47.3971 136.062 47.3971C133.608 47.3971 131.655 45.4077 131.655 42.9359ZM166.227 31.4333C166.227 22.5109 173.373 15.2645 182.197 15.2645C191.022 15.2645 198.168 22.4989 198.168 31.4333C198.168 33.9171 196.203 35.8945 193.761 35.8945H176.624C177.994 37.4861 179.959 38.5712 182.209 38.5712C184.663 38.5712 186.616 40.6571 186.616 43.0324C186.616 45.4077 184.663 47.4936 182.209 47.4936C173.397 47.4936 166.239 40.2592 166.239 31.4333H166.227ZM176.517 26.9721H187.878C186.509 25.2841 184.544 24.1989 182.197 24.1989C179.851 24.1989 177.886 25.2962 176.517 26.9721ZM222.45 36.0995C221.271 34.9058 219.223 34.2185 216.96 34.2185C209.422 34.2185 203.539 29.5524 203.539 23.6081C203.539 17.6639 209.41 13.0942 216.96 13.0942C224.51 13.0942 230.382 17.7604 230.382 23.6081C230.382 25.694 228.81 27.37 226.761 27.37C224.903 27.37 223.427 25.887 223.141 23.7046C222.843 22.113 220.497 20.4371 216.972 20.4371C213.244 20.4371 210.898 22.318 210.898 23.6081C210.898 24.9947 212.959 26.7792 216.877 26.7792C221.188 26.7792 225.106 28.2622 227.654 30.8425C229.417 32.627 230.394 35.0023 230.394 37.3896C230.394 43.3459 224.51 48 216.972 48C212.756 48 208.945 46.517 206.397 43.9367C204.539 42.0558 203.55 39.7769 203.55 37.3896C203.55 36.4009 203.943 35.4122 204.622 34.7129C205.313 34.0136 206.29 33.6157 207.266 33.6157C209.124 33.6157 210.601 35.0987 210.886 37.2811C210.982 37.7754 211.184 38.2698 211.577 38.6677C212.649 39.8613 214.805 40.5486 216.96 40.5486C220.676 40.5486 223.034 38.6677 223.034 37.3775C223.034 36.8832 222.641 36.2924 222.45 36.0874V36.0995ZM255.069 36.0995C253.89 34.9058 251.842 34.2185 249.579 34.2185C242.041 34.2185 236.158 29.5524 236.158 23.6081C236.158 17.6639 242.029 13.0942 249.579 13.0942C257.129 13.0942 263.001 17.7604 263.001 23.6081C263.001 25.694 261.429 27.37 259.38 27.37C257.522 27.37 256.046 25.887 255.76 23.7046C255.462 22.113 253.116 20.4371 249.591 20.4371C245.863 20.4371 243.517 22.318 243.517 23.6081C243.517 24.9947 245.578 26.7792 249.496 26.7792C253.807 26.7792 257.725 28.2622 260.273 30.8425C262.036 32.627 263.012 35.0023 263.012 37.3896C263.012 43.3459 257.129 48 249.591 48C245.375 48 241.564 46.517 239.016 43.9367C237.158 42.0558 236.169 39.7769 236.169 37.3896C236.169 36.4009 236.562 35.4122 237.241 34.7129C237.932 34.0136 238.908 33.6157 239.885 33.6157C241.743 33.6157 243.22 35.0987 243.505 37.2811C243.601 37.7754 243.803 38.2698 244.196 38.6677C245.268 39.8613 247.423 40.5486 249.579 40.5486C253.295 40.5486 255.653 38.6677 255.653 37.3775C255.653 36.8832 255.26 36.2924 255.069 36.0874V36.0995Z" fill="#7B7B7B"/>
</g>
<defs>
<clipPath id="clip0_1_526">
<rect width="263" height="48" fill="white"/>
</clipPath>
</defs>
</svg>
