<svg width="197" height="36" viewBox="0 0 197 36" fill="none" xmlns="http://www.w3.org/2000/svg">
<g clip-path="url(#clip0_1_145)">
<path d="M31.4005 20.6722V32.2743C31.4005 34.1371 29.9375 35.6202 28.0999 35.6202C26.2623 35.6202 24.7993 34.1281 24.7993 32.2743V20.6722C24.7993 19.1078 23.4791 17.7694 21.8645 17.7694C21.133 17.7694 20.4015 18.0678 19.8128 18.5923C19.2954 19.1891 19.0099 19.9307 19.0099 20.6722V32.2743C19.0099 34.1371 17.547 35.6202 15.7093 35.6202C13.8717 35.6202 12.4088 34.1281 12.4088 32.2743V20.6722C12.4088 19.1078 11.0885 17.7694 9.47391 17.7694C7.8593 17.7694 6.61044 19.0354 6.61044 20.6722V32.3466C6.61044 34.1281 5.14748 35.6202 3.30986 35.6202C1.47224 35.6202 0.00927734 34.1281 0.00927734 32.2743V20.6722C0.00927734 15.3911 4.26435 11.0776 9.47391 11.0776C11.8914 11.0776 14.0234 11.9729 15.7093 13.3836C17.3953 11.9005 19.5987 11.0776 21.8734 11.0776C27.1543 11.0776 31.4094 15.3911 31.4094 20.6722H31.4005ZM58.7685 23.575C58.7685 30.1944 53.4162 35.6202 46.8061 35.6202C43.5769 35.6202 40.5707 34.4265 38.3674 32.1206C36.0926 29.8146 34.8438 26.7671 34.8438 23.5659C34.8438 16.8742 40.1961 11.4393 46.8061 11.4393C53.4162 11.4393 58.7685 16.8651 58.7685 23.5659V23.575ZM52.1674 23.575C52.1674 20.5998 49.7499 18.1492 46.8151 18.1492C43.8802 18.1492 41.4628 20.5998 41.4628 23.575C41.4628 24.9857 42.0515 26.324 43.006 27.373C44.0319 28.413 45.3521 28.9375 46.824 28.9375C49.7588 28.9375 52.1763 26.5592 52.1763 23.584L52.1674 23.575ZM83.4961 15.5448L76.1635 33.6217C75.6461 34.8877 74.4775 35.7016 73.0859 35.7016C71.7657 35.7016 70.5882 34.8877 70.0797 33.6217L62.6668 15.5448C61.9353 13.8357 62.7381 11.9005 64.4241 11.159C66.1101 10.4898 68.0191 11.3037 68.7505 13.0219C68.7505 13.0219 70.9539 18.4476 73.077 23.584C75.2 18.4567 77.4034 13.0219 77.4034 13.0219C78.1349 11.3127 80.0439 10.4898 81.7298 11.159C83.4158 11.9005 84.2276 13.8357 83.4872 15.5448H83.4961ZM95.1641 3.71665C95.1641 5.72419 93.5495 7.43331 91.4978 7.43331C89.4461 7.43331 87.8315 5.72419 87.8315 3.71665C87.8315 1.70912 89.5174 0 91.4978 0C93.4781 0 95.1641 1.63677 95.1641 3.71665ZM94.7983 13.5373V32.2833C94.7983 34.1462 93.3265 35.6292 91.4978 35.6292C89.6691 35.6292 88.1972 34.1371 88.1972 32.2833V13.5373C88.1972 11.7558 89.6691 10.1914 91.4978 10.1914C93.3265 10.1914 94.7983 11.7558 94.7983 13.5373ZM98.6163 32.202V22.309C98.6163 16.0603 103.674 11.0053 109.838 11.0053C116.002 11.0053 121.06 16.0603 121.06 22.309V32.202C121.06 34.0648 119.517 35.5479 117.76 35.5479C116.002 35.5479 114.459 34.0558 114.459 32.202V22.309C114.459 19.7769 112.327 17.6971 109.838 17.6971C107.349 17.6971 105.217 19.7769 105.217 22.309V32.202C105.217 34.0648 103.755 35.5479 101.917 35.5479C100.079 35.5479 98.6163 34.0558 98.6163 32.202ZM124.512 23.575C124.512 16.8832 129.865 11.4484 136.475 11.4484C143.085 11.4484 148.437 16.8742 148.437 23.575C148.437 25.4378 146.965 26.9209 145.137 26.9209H132.3C133.326 28.1145 134.798 28.9284 136.484 28.9284C138.321 28.9284 139.784 30.4928 139.784 32.2743C139.784 34.0558 138.321 35.6202 136.484 35.6202C129.883 35.6202 124.521 30.1944 124.521 23.575H124.512ZM132.22 20.2291H140.73C139.704 18.9631 138.232 18.1492 136.475 18.1492C134.718 18.1492 133.246 18.9721 132.22 20.2291ZM166.626 27.0746C165.743 26.1794 164.209 25.6639 162.514 25.6639C156.867 25.6639 152.46 22.1643 152.46 17.7061C152.46 13.2479 156.858 9.82065 162.514 9.82065C168.169 9.82065 172.567 13.3203 172.567 17.7061C172.567 19.2705 171.39 20.5275 169.855 20.5275C168.464 20.5275 167.358 19.4152 167.143 17.7784C166.92 16.5848 165.163 15.3278 162.523 15.3278C159.731 15.3278 157.973 16.7385 157.973 17.7061C157.973 18.746 159.516 20.0844 162.451 20.0844C165.681 20.0844 168.615 21.1967 170.524 23.1319C171.845 24.4702 172.576 26.2517 172.576 28.0422C172.576 32.5094 168.169 36 162.523 36C159.365 36 156.51 34.8877 154.601 32.9525C153.21 31.5418 152.469 29.8327 152.469 28.0422C152.469 27.3007 152.764 26.5592 153.272 26.0347C153.79 25.5102 154.521 25.2118 155.252 25.2118C156.644 25.2118 157.75 26.324 157.964 27.9608C158.036 28.3316 158.187 28.7023 158.482 29.0008C159.285 29.896 160.899 30.4115 162.514 30.4115C165.297 30.4115 167.063 29.0008 167.063 28.0332C167.063 27.6624 166.769 27.2193 166.626 27.0656V27.0746ZM191.059 27.0746C190.176 26.1794 188.642 25.6639 186.947 25.6639C181.3 25.6639 176.894 22.1643 176.894 17.7061C176.894 13.2479 181.291 9.82065 186.947 9.82065C192.603 9.82065 197 13.3203 197 17.7061C197 19.2705 195.823 20.5275 194.289 20.5275C192.897 20.5275 191.791 19.4152 191.577 17.7784C191.354 16.5848 189.596 15.3278 186.956 15.3278C184.164 15.3278 182.406 16.7385 182.406 17.7061C182.406 18.746 183.95 20.0844 186.885 20.0844C190.114 20.0844 193.049 21.1967 194.958 23.1319C196.278 24.4702 197.009 26.2517 197.009 28.0422C197.009 32.5094 192.603 36 186.956 36C183.798 36 180.943 34.8877 179.035 32.9525C177.643 31.5418 176.903 29.8327 176.903 28.0422C176.903 27.3007 177.197 26.5592 177.705 26.0347C178.223 25.5102 178.954 25.2118 179.686 25.2118C181.077 25.2118 182.183 26.324 182.398 27.9608C182.469 28.3316 182.621 28.7023 182.915 29.0008C183.718 29.896 185.332 30.4115 186.947 30.4115C189.73 30.4115 191.496 29.0008 191.496 28.0332C191.496 27.6624 191.202 27.2193 191.059 27.0656V27.0746Z" fill="url(#paint0_linear_1_145)"/>
</g>
<defs>
<linearGradient id="paint0_linear_1_145" x1="0.000356857" y1="17.9955" x2="197" y2="17.9955" gradientUnits="userSpaceOnUse">
<stop stop-color="#2CABDB"/>
<stop offset="1" stop-color="#8B9BCE"/>
</linearGradient>
<clipPath id="clip0_1_145">
<rect width="197" height="36" fill="white"/>
</clipPath>
</defs>
</svg>
